HIERARCHY
ROOT Hips
{
	OFFSET 0.00000 0.00000 0.00000
	CHANNELS 6 Xposition Yposition Zposition Zrotation Yrotation Xrotation 
	JOINT LHipJoint
	{
		OFFSET 0 0 0
		CHANNELS 3 Zrotation Yrotation Xrotation
		JOINT LeftUpLeg
		{
			OFFSET 1.53139 -1.83434 0.76626
			CHANNELS 3 Zrotation Yrotation Xrotation
			JOINT LeftLeg
			{
				OFFSET 2.56112 -7.03663 0.00000
				CHANNELS 3 Zrotation Yrotation Xrotation
				JOINT LeftFoot
				{
					OFFSET 2.59983 -7.14299 0.00000
					CHANNELS 3 Zrotation Yrotation Xrotation
					JOINT LeftToeBase
					{
						OFFSET 0.13742 -0.37757 2.00054
						CHANNELS 3 Zrotation Yrotation Xrotation
						End Site
						{
							OFFSET 0.00000 -0.00000 1.02897
						}
					}
				}
			}
		}
	}
	JOINT RHipJoint
	{
		OFFSET 0 0 0
		CHANNELS 3 Zrotation Yrotation Xrotation
		JOINT RightUpLeg
		{
			OFFSET -1.40122 -1.83435 0.76627
			CHANNELS 3 Zrotation Yrotation Xrotation
			JOINT RightLeg
			{
				OFFSET -2.54052 -6.98003 0.00000
				CHANNELS 3 Zrotation Yrotation Xrotation
				JOINT RightFoot
				{
					OFFSET -2.63179 -7.23079 0.00000
					CHANNELS 3 Zrotation Yrotation Xrotation
					JOINT RightToeBase
					{
						OFFSET -0.24131 -0.66299 2.03908
						CHANNELS 3 Zrotation Yrotation Xrotation
						End Site
						{
							OFFSET -0.00000 -0.00000 1.07391
						}
					}
				}
			}
		}
	}
	JOINT LowerBack
	{
		OFFSET 0 0 0
		CHANNELS 3 Zrotation Yrotation Xrotation
		JOINT Spine
		{
			OFFSET 0.01174 2.10302 -0.29778
			CHANNELS 3 Zrotation Yrotation Xrotation
			JOINT Spine1
			{
				OFFSET 0.00772 2.13227 -0.01247
				CHANNELS 3 Zrotation Yrotation Xrotation
				JOINT Neck
				{
					OFFSET 0 0 0
					CHANNELS 3 Zrotation Yrotation Xrotation
					JOINT Neck1
					{
						OFFSET -0.09219 1.60848 0.31481
						CHANNELS 3 Zrotation Yrotation Xrotation
						JOINT Head
						{
							OFFSET 0.13974 1.65456 -0.31134
							CHANNELS 3 Zrotation Yrotation Xrotation
							End Site
							{
								OFFSET 0.04742 1.69515 -0.14578
							}
						}
					}
				}
				JOINT LeftShoulder
				{
					OFFSET 0 0 0
					CHANNELS 3 Zrotation Yrotation Xrotation
					JOINT LeftArm
					{
						OFFSET 3.24909 1.02882 -0.23993
						CHANNELS 3 Zrotation Yrotation Xrotation
						JOINT LeftForeArm
						{
							OFFSET 5.32955 -0.00000 -0.00000
							CHANNELS 3 Zrotation Yrotation Xrotation
							JOINT LeftHand
							{
								OFFSET 3.69232 -0.00000 -0.00000
								CHANNELS 3 Zrotation Yrotation Xrotation
								JOINT LeftFingerBase
								{
									OFFSET 0 0 0
									CHANNELS 3 Zrotation Yrotation Xrotation
									JOINT LeftHandIndex1
									{
										OFFSET 0.53660 -0.00000 -0.00000
										CHANNELS 3 Zrotation Yrotation Xrotation
										End Site
										{
											OFFSET 0.43262 -0.00000 -0.00000
										}
									}
								}
								JOINT LThumb
								{
									OFFSET 0 0 0
									CHANNELS 3 Zrotation Yrotation Xrotation
									End Site
									{
										OFFSET 0.43922 -0.00000 0.43922
									}
								}
							}
						}
					}
				}
				JOINT RightShoulder
				{
					OFFSET 0 0 0
					CHANNELS 3 Zrotation Yrotation Xrotation
					JOINT RightArm
					{
						OFFSET -3.21387 0.93002 -0.34594
						CHANNELS 3 Zrotation Yrotation Xrotation
						JOINT RightForeArm
						{
							OFFSET -5.23431 -0.00000 0.00000
							CHANNELS 3 Zrotation Yrotation Xrotation
							JOINT RightHand
							{
								OFFSET -3.55301 -0.00000 -0.00000
								CHANNELS 3 Zrotation Yrotation Xrotation
								JOINT RightFingerBase
								{
									OFFSET 0 0 0
									CHANNELS 3 Zrotation Yrotation Xrotation
									JOINT RightHandIndex1
									{
										OFFSET -0.77252 -0.00000 -0.00000
										CHANNELS 3 Zrotation Yrotation Xrotation
										End Site
										{
											OFFSET -0.62283 -0.00000 -0.00000
										}
									}
								}
								JOINT RThumb
								{
									OFFSET 0 0 0
									CHANNELS 3 Zrotation Yrotation Xrotation
									End Site
									{
										OFFSET -0.63234 -0.00000 0.63234
									}
								}
							}
						}
					}
				}
			}
		}
	}
}
MOTION
Frames: 16
Frame Time: .0083333
-11.9264 17.7889 -12.8701 0 0 0 0 0 0 -21 0 0 0 0 0 0 0 0 0 0 0 0 0 0 21 0 0 0 0 0 0 0 0 0 0 0 0 0 0 0 0 0 0 0 0 0 0 -16 0 0 21 0 0 11 0 0 0 -8 0 0 0 0 0 0 0 0 0 0 0 0 0 0 0 0 0 0 0 0 8 0 0 0 0 0 0 0 0 0 0 0 0 0 0 0 0 0
-11.9264 17.7889 -12.8701 6.2232 -3.6838 -1.4800 0.0000 0.0000 0.0000 -29.1187 2.2165 23.0189 0.0000 -0.0000 -0.0000 -0.0755 -4.8707 1.9137 1.3620 -7.3868 -20.8664 0.0000 0.0000 0.0000 12.5465 6.5044 -23.3047 -1.9183 -8.6937 24.8419 0.0154 2.3086 0.1029 -0.2372 -3.1345 8.6534 -7.3986 0.3015 11.0516 -0.5234 -0.5385 1.0029 3.7029 -0.1134 -5.0920 -12.0459 -5.0595 -23.0817 7.7862 -5.2525 28.6990 4.2133 -2.5249 14.2639 -0.0000 0.0000 0.0000 -83.8839 -5.4833 24.6231 18.8930 -29.2855 -4.9784 -0.0000 -0.0000 4.5591 21.3367 27.4020 10.1915 -7.1250 0.0000 -0.0000 -10.1958 58.7868 -3.4590 -0.0000 0.0000 0.0000 91.9264 -2.0410 10.2805 -13.1757 21.5441 -2.5174 0.0000 0.0000 11.1776 -17.7367 11.1511 -3.5397 7.1250 -0.0000 -0.0000 6.5866 -18.3315 4.2087
-11.9532 17.8098 -12.7083 6.0488 -3.8205 -1.5832 0.0000 0.0000 0.0000 -28.7935 2.5223 23.5418 0.0000 0.0000 0.0000 -0.0922 -5.4096 2.6175 1.5565 -7.8739 -22.3316 0.0000 0.0000 0.0000 12.9594 6.2991 -22.7682 -1.9463 -8.7534 25.0270 0.0147 2.2356 0.1523 -0.1949 -2.8431 7.8423 -7.0741 0.3123 11.0591 -0.4955 -0.4859 0.9453 3.5421 -0.0902 -5.1655 -11.9435 -5.0237 -23.0688 7.5777 -5.1807 28.8719 4.1287 -2.5150 14.3172 -0.0000 0.0000 0.0000 -84.1098 -4.9314 24.2724 18.7325 -29.0849 -4.9001 -0.0000 -0.0000 4.5153 21.7981 26.6652 10.1751 -7.1250 0.0000 -0.0000 -9.3131 58.1441 -3.0120 -0.0000 0.0000 0.0000 92.0196 -2.2591 9.6775 -13.0018 21.2899 -2.4540 0.0000 0.0000 11.8656 -17.6756 11.4904 -3.6323 7.1250 -0.0000 -0.0000 6.6313 -17.9839 4.2888
-11.9821 17.8380 -12.5579 5.4155 -4.0618 -1.4862 0.0000 0.0000 0.0000 -27.9597 2.7798 23.8100 0.0000 0.0000 0.0000 -0.0774 -5.3505 4.1694 1.6063 -7.9927 -22.6920 0.0000 0.0000 0.0000 13.8683 6.4451 -22.0860 -1.9108 -8.6778 24.7925 0.0152 2.2081 0.4785 -0.0845 -1.8753 5.1613 -6.3526 0.3180 11.0118 -0.3140 -0.3795 0.8517 3.3107 -0.0468 -5.2526 -11.9540 -4.9816 -23.1444 7.4930 -5.0795 28.9587 4.1177 -2.4850 14.3563 -0.0000 -0.0000 0.0000 -84.3725 -4.4740 23.9733 18.4610 -28.7435 -4.7689 -0.0000 -0.0000 4.3613 22.6557 25.8248 10.3054 -7.1250 0.0000 -0.0000 -7.9843 57.4748 -2.4495 -0.0000 -0.0000 0.0000 92.0785 -2.3843 9.5021 -12.8555 21.0751 -2.4011 0.0000 0.0000 11.3739 -17.7549 11.1913 -3.5561 7.1250 -0.0000 -0.0000 6.5740 -18.2886 4.2068
-12.0200 17.8681 -12.4130 4.6681 -4.1252 -1.4829 0.0000 0.0000 0.0000 -27.4995 1.5125 20.1419 0.2012 2.8886 7.9687 -0.1080 -5.8172 2.2075 1.5859 -7.9443 -22.5449 0.0000 0.0000 0.0000 14.8939 6.7484 -21.2297 -1.8957 -8.6453 24.6920 0.0115 2.1010 -0.1845 -0.1498 -2.4937 6.8722 -5.6714 0.2667 11.0892 -0.0492 -0.3552 0.8100 3.2027 -0.0439 -5.3439 -11.9992 -4.9415 -23.2854 7.4561 -4.9752 29.0543 4.1336 -2.4500 14.4159 -0.0000 -0.0000 0.0000 -84.6862 -4.0472 23.4371 18.1996 -28.4119 -4.6438 -0.0000 -0.0000 4.4503 23.3151 25.7445 10.6031 -7.1250 0.0000 -0.0000 -7.2339 57.5376 -2.2286 -0.0000 -0.0000 0.0000 92.0818 -2.4069 9.1891 -12.6498 20.7720 -2.3276 0.0000 0.0000 10.9034 -17.9230 11.3353 -3.6375 7.1250 -0.0000 -0.0000 6.4569 -18.1265 4.1541
-12.0534 17.8928 -12.2643 4.2185 -4.3212 -1.4509 0.0000 0.0000 0.0000 -27.1263 1.0233 18.2904 0.4601 4.3512 12.0667 -0.1136 -5.9721 2.4497 1.4536 -7.6208 -21.5680 0.0000 0.0000 0.0000 15.6104 6.7207 -20.5065 -1.8666 -8.5826 24.4981 0.0155 2.4414 -0.2184 -0.0958 -1.9960 5.4946 -5.2411 0.2742 10.9996 0.0932 -0.2798 0.7549 3.0978 -0.0137 -5.3600 -11.9106 -4.9045 -23.2963 7.3511 -4.9247 29.1610 4.0880 -2.4351 14.4524 -0.0000 0.0000 0.0000 -84.9778 -3.5103 22.7875 18.0183 -28.1806 -4.5579 -0.0000 -0.0000 4.7588 23.3675 25.9023 10.6884 -7.1250 0.0000 -0.0000 -7.2470 57.7123 -2.2632 -0.0000 0.0000 0.0000 92.1300 -2.5075 8.6700 -12.4614 20.4930 -2.2612 0.0000 0.0000 10.8562 -17.7576 10.8998 -3.4654 7.1250 -0.0000 -0.0000 6.5710 -18.5911 4.1606
-12.0839 17.9142 -12.1102 3.9743 -4.5022 -1.4945 0.0000 0.0000 0.0000 -27.0409 0.4346 17.0227 0.7400 5.4953 15.3269 -0.0975 -5.6347 3.2089 1.2838 -7.1800 -20.2497 0.0000 0.0000 0.0000 16.0547 6.5552 -19.8010 -1.8504 -8.5473 24.3890 0.0111 2.5946 -0.9677 -0.1524 -2.5158 6.9335 -4.9486 0.3023 10.9651 0.1535 -0.2026 0.6997 2.9841 0.0203 -5.4064 -11.7923 -4.8616 -23.3488 7.2351 -4.8710 29.3291 4.0355 -2.4175 14.5236 0.0000 -0.0000 0.0000 -85.2646 -2.8836 22.1929 17.8894 -28.0153 -4.4972 -0.0000 -0.0000 5.0494 23.1808 26.0088 10.6347 -7.1250 0.0000 -0.0000 -7.4982 57.7808 -2.3546 0.0000 -0.0000 0.0000 92.1858 -2.6477 8.2669 -12.3238 20.2884 -2.2133 0.0000 0.0000 10.8106 -17.4875 10.2804 -3.2182 7.1250 -0.0000 -0.0000 6.7618 -19.2525 4.1831
-12.1146 17.9364 -11.9583 3.7932 -4.6018 -1.5984 0.0000 0.0000 0.0000 -26.9381 0.0648 15.9241 1.0371 6.4771 18.1750 -0.0707 -5.2718 4.4429 1.1918 -6.9275 -19.5008 0.0000 0.0000 0.0000 16.3834 6.3867 -19.0830 -1.8461 -8.5379 24.3602 0.0084 2.7184 -1.3267 -0.1111 -2.1495 5.9190 -4.7476 0.3262 11.0697 0.2193 -0.1489 0.6569 2.9323 0.0462 -5.5151 -11.7470 -4.8288 -23.4767 7.1768 -4.8104 29.4646 4.0198 -2.3952 14.6005 0.0000 -0.0000 0.0000 -85.5796 -2.3212 21.6089 17.7379 -27.8202 -4.4262 -0.0000 -0.0000 5.3627 23.0960 26.5139 10.7787 -7.1250 0.0000 -0.0000 -7.8243 58.2821 -2.5523 0.0000 -0.0000 0.0000 92.2078 -2.7645 7.7787 -12.2079 20.1157 -2.1733 0.0000 0.0000 11.0880 -17.3619 10.4607 -3.2489 7.1250 -0.0000 -0.0000 6.8502 -19.0738 4.2661
-12.1439 17.9543 -11.8079 3.8962 -4.6203 -1.6864 0.0000 0.0000 0.0000 -27.0391 -0.0996 14.7151 1.3642 7.3925 20.8835 -0.0297 -5.0347 6.0913 1.0595 -6.5446 -18.3730 0.0000 0.0000 0.0000 16.3853 5.8866 -18.5346 -1.8370 -8.5180 24.2988 0.0081 3.3971 -1.9574 -0.1832 -2.7569 7.6027 -4.8590 0.3342 11.0591 0.2275 -0.1508 0.6677 3.0041 0.0474 -5.4974 -11.7863 -4.8417 -23.5286 7.1943 -4.8117 29.4433 4.0327 -2.3965 14.6043 0.0000 -0.0000 0.0000 -85.8732 -1.8272 21.1340 17.5756 -27.6103 -4.3507 -0.0000 -0.0000 5.6127 23.0855 26.9508 10.9338 -7.1250 0.0000 -0.0000 -8.0461 58.7286 -2.7116 0.0000 -0.0000 0.0000 92.1775 -2.8720 7.5044 -12.1659 20.0530 -2.1589 0.0000 0.0000 11.1475 -16.9704 9.4826 -2.8782 7.1250 -0.0000 -0.0000 7.1352 -20.1110 4.2797
-12.1752 17.9716 -11.6552 3.9697 -4.5157 -1.7469 0.0000 0.0000 0.0000 -27.0386 -0.3011 13.4506 1.7280 8.2749 23.5521 0.0463 -4.7156 8.1613 0.9013 -6.0505 -16.9309 0.0000 0.0000 0.0000 16.4254 5.3450 -17.9975 -1.8221 -8.4852 24.1977 0.0147 4.0581 -2.1839 -0.2295 -3.0834 8.5110 -4.8984 0.2988 10.9257 0.1961 -0.1959 0.7163 2.9993 0.0216 -5.3675 -11.7437 -4.8276 -23.5968 7.2363 -4.8112 29.3839 4.0411 -2.3830 14.5920 -0.0000 -0.0000 0.0000 -86.0376 -1.3646 20.8186 17.3985 -27.3801 -4.2690 -0.0000 -0.0000 5.6998 22.8192 26.7387 10.7196 -7.1250 0.0000 -0.0000 -8.2355 58.4500 -2.7209 -0.0000 -0.0000 0.0000 92.1102 -3.1071 7.8180 -12.2469 20.1738 -2.1867 0.0000 0.0000 10.4824 -16.6158 8.6136 -2.5590 7.1250 -0.0000 -0.0000 7.4026 -21.0287 4.2886
-12.2107 17.9924 -11.5046 3.7313 -4.2412 -1.8016 0.0000 0.0000 0.0000 -26.6161 -0.6038 12.2233 2.1109 9.0933 26.0876 0.1830 -4.1704 10.7093 0.6621 -5.2041 -14.4916 0.0000 0.0000 0.0000 16.8173 4.8660 -17.3748 -1.8104 -8.4595 24.1186 0.0112 4.3555 -2.5958 -0.2482 -3.2060 8.8527 -4.6407 0.2302 10.8550 0.2385 -0.2490 0.7149 2.9059 -0.0111 -5.3251 -11.7257 -4.8030 -23.5704 7.3101 -4.8120 29.3955 4.0697 -2.3715 14.5928 0.0000 0.0000 0.0000 -86.0985 -0.8574 20.7602 17.1864 -27.1029 -4.1719 -0.0000 -0.0000 5.5828 22.1991 26.5466 10.3359 -7.1250 0.0000 -0.0000 -8.8191 58.1132 -2.8440 0.0000 0.0000 0.0000 92.0093 -3.5983 8.1913 -12.4369 20.4566 -2.2526 0.0000 0.0000 9.7491 -16.4547 8.7299 -2.5667 7.1250 -0.0000 -0.0000 7.5163 -20.9170 4.3747
-12.2373 18.0048 -11.3683 3.4441 -4.2701 -1.9230 0.0000 0.0000 0.0000 -26.2771 -0.8588 10.9906 2.5155 9.8661 28.5443 0.3843 -3.3607 13.4321 0.4788 -4.4377 -12.3114 0.0000 0.0000 0.0000 17.2692 4.4422 -16.7310 -1.7870 -8.4075 23.9588 0.0170 4.7518 -2.6884 -0.1498 -2.4943 6.8739 -4.2958 0.2391 11.0062 0.3214 -0.1978 0.7129 2.7915 0.0090 -5.4167 -11.8589 -4.7715 -23.6024 7.4655 -4.7609 29.3995 4.1689 -2.3427 14.6042 0.0000 0.0000 0.0000 -86.2919 -0.4449 20.5711 16.9516 -26.7939 -4.0655 -0.0000 -0.0000 5.7419 21.5072 26.5061 9.9743 -7.1250 0.0000 -0.0000 -9.5488 57.9174 -3.0370 0.0000 0.0000 0.0000 91.9913 -3.5562 7.2712 -12.2505 20.1793 -2.1880 0.0000 0.0000 10.9063 -16.6578 9.8957 -2.9436 7.1250 -0.0000 -0.0000 7.3534 -19.7027 4.4805
-12.2716 18.0155 -11.2229 3.2064 -3.9624 -1.9138 0.0000 0.0000 0.0000 -25.9281 -1.3851 9.7772 2.9416 10.5999 30.9422 0.6338 -2.7961 16.3107 0.3437 -3.7671 -10.4224 0.0000 0.0000 0.0000 17.6506 4.0285 -16.0651 -1.7455 -8.3145 23.6736 -0.0006 4.8237 -3.4007 -0.1976 -2.8626 7.8964 -4.1168 0.1318 10.9556 0.4399 -0.3091 0.7015 2.8317 -0.0490 -5.3915 -11.9338 -4.7909 -23.7526 7.5287 -4.7629 29.4481 4.2100 -2.3417 14.6633 -0.0000 -0.0000 0.0000 -86.5073 -0.0487 20.5124 16.7370 -26.5097 -3.9692 -0.0000 -0.0000 5.9280 21.2169 26.4994 9.8271 -7.1250 0.0000 -0.0000 -9.8587 57.8463 -3.1199 -0.0000 -0.0000 0.0000 92.1244 -2.9830 4.8779 -11.7617 19.4463 -2.0222 0.0000 0.0000 14.1878 -16.9405 12.0438 -3.6366 7.1250 -0.0000 -0.0000 7.1477 -17.4662 4.7098
-12.3009 18.0323 -11.0737 2.7585 -3.7946 -1.9442 0.0000 0.0000 0.0000 -25.3769 -1.8470 8.5855 3.3871 11.2968 33.2874 0.8843 -2.4715 18.8203 0.2181 -3.0065 -8.2967 0.0000 0.0000 0.0000 18.2670 3.5447 -15.3299 -1.6911 -8.1906 23.2944 -0.0013 5.1338 -3.6398 -0.1733 -2.6815 7.3932 -3.6877 0.0859 10.8710 0.5975 -0.3043 0.7306 2.7531 -0.0571 -5.3149 -11.9341 -4.8630 -23.7690 7.4792 -4.8461 29.3843 4.1698 -2.3824 14.6479 -0.0000 -0.0000 0.0000 -86.6651 0.2831 20.6120 16.4947 -26.1868 -3.8617 -0.0000 -0.0000 6.1701 20.9963 26.3721 9.6747 -7.1250 0.0000 -0.0000 -10.0321 57.6685 -3.1324 -0.0000 -0.0000 0.0000 92.1085 -2.6527 3.6538 -11.5124 19.0693 -1.9400 0.0000 0.0000 15.9434 -17.0632 12.9515 -3.9353 7.1250 -0.0000 -0.0000 7.0693 -16.5195 4.8045
-12.3258 18.0513 -10.9218 2.1692 -3.7785 -2.0007 0.0000 0.0000 0.0000 -24.6989 -2.1983 7.3881 3.8475 11.9546 35.5717 1.0968 -2.0789 20.6349 0.0566 -1.5354 -4.2234 0.0000 0.0000 0.0000 19.0469 3.1331 -14.4840 -1.6201 -8.0253 22.7911 0.0006 5.3701 -3.7434 -0.1518 -2.5109 6.9199 -3.0817 0.1163 10.8267 0.7834 -0.1780 0.7406 2.5861 -0.0075 -5.2897 -11.9049 -4.9238 -23.8150 7.4046 -4.9167 29.4141 4.1200 -2.4192 14.6773 0.0000 -0.0000 0.0000 -86.8056 0.7386 20.9893 16.3468 -25.9886 -3.7967 -0.0000 -0.0000 6.3474 20.7675 26.3641 9.5589 -7.1250 0.0000 -0.0000 -10.2735 57.6103 -3.1944 0.0000 -0.0000 0.0000 91.8836 -3.0145 4.5248 -11.7191 19.3821 -2.0081 0.0000 0.0000 14.9995 -17.0786 12.6016 -3.8347 7.1250 -0.0000 -0.0000 7.0554 -16.8795 4.7392
-12.3505 18.0661 -10.7763 1.5815 -3.7101 -2.0471 0.0000 0.0000 0.0000 -24.0172 -2.6002 6.1774 4.3265 12.5826 37.8256 1.3018 -1.7368 22.2465 0.0014 0.2396 0.6582 0.0000 0.0000 0.0000 19.8325 2.7126 -13.6257 -1.5356 -7.8233 22.1786 -0.0028 5.3721 -3.8481 -0.1363 -2.3794 6.5553 -2.4611 0.1327 10.9416 0.9632 -0.0736 0.6911 2.4090 0.0339 -5.4133 -11.9634 -4.9689 -23.8680 7.4165 -4.9575 29.4575 4.1284 -2.4414 14.7163 0.0000 0.0000 0.0000 -86.8662 1.2596 21.7009 16.2343 -25.8373 -3.7475 -0.0000 -0.0000 6.2398 20.9851 26.2722 9.6358 -7.1250 0.0000 -0.0000 -9.9945 57.5649 -3.0955 0.0000 0.0000 0.0000 91.6124 -3.5526 6.0998 -12.0579 19.8915 -2.1220 0.0000 0.0000 13.0978 -17.6058 12.7706 -4.0125 7.1250 -0.0000 -0.0000 6.6922 -16.6620 4.5236
